HIERARCHY
ROOT hip
{
	OFFSET 0.000000 0.000000 0.000000 
	CHANNELS 6 Xposition Yposition Zposition Xrotation Zrotation Yrotation
	JOINT abdomen
	{
		OFFSET 0.000000 3.402643 0.000000 
		CHANNELS 3 Xrotation Zrotation Yrotation
		JOINT chest
		{
			OFFSET 0.000000 8.438565 -0.680529 
			CHANNELS 3 Xrotation Zrotation Yrotation
			JOINT neck
			{
				OFFSET 0.000000 10.207942 -0.272212 
				CHANNELS 3 Xrotation Zrotation Yrotation
				JOINT head
				{
					OFFSET 0.000000 3.130431 0.000000 
					CHANNELS 3 Xrotation Zrotation Yrotation
					End Site
					{
						OFFSET 0.000000 3.130435 0.000000 
					}
				}
			}
			JOINT lCollar
			{
				OFFSET 3.470700 6.669187 -0.816635 
				CHANNELS 3 Yrotation Zrotation Xrotation
				JOINT lShldr
				{
					OFFSET 3.198488 0.000000 0.000000 
					CHANNELS 3 Zrotation Yrotation Xrotation
					JOINT lForeArm
					{
						OFFSET 10.139888 0.000000 0.000000 
						CHANNELS 3 Yrotation Zrotation Xrotation
						JOINT lHand
						{
							OFFSET 8.370511 0.000000 0.000000 
							CHANNELS 3 Zrotation Yrotation Xrotation
							End Site
							{
								OFFSET 4.083176 0.000000 0.000000 
							}
						}
					}
				}
			}
			JOINT rCollar
			{
				OFFSET -3.470700 6.669187 -0.816635 
				CHANNELS 3 Yrotation Zrotation Xrotation
				JOINT rShldr
				{
					OFFSET -3.198488 0.000000 0.000000 
					CHANNELS 3 Zrotation Yrotation Xrotation
					JOINT rForeArm
					{
						OFFSET -10.139888 0.000000 0.000000 
						CHANNELS 3 Yrotation Zrotation Xrotation
						JOINT rHand
						{
							OFFSET -8.370511 0.000000 0.000000 
							CHANNELS 3 Zrotation Yrotation Xrotation
							End Site
							{
								OFFSET -4.083176 0.000000 0.000000 
							}
						}
					}
				}
			}
		}
	}
	JOINT lThigh
	{
		OFFSET 5.308129 -1.633274 1.361059 
		CHANNELS 3 Xrotation Zrotation Yrotation
		JOINT lShin
		{
			OFFSET -2.041588 -20.007561 0.000000 
			CHANNELS 3 Xrotation Zrotation Yrotation
			JOINT lFoot
			{
				OFFSET 0.000000 -19.190928 -1.224953 
				CHANNELS 3 Xrotation Yrotation Zrotation
				End Site
				{
					OFFSET 0.000000 -2.449906 4.627600 
				}
			}
		}
	}
	JOINT rThigh
	{
		OFFSET -5.308129 -1.633274 1.361059 
		CHANNELS 3 Xrotation Zrotation Yrotation
		JOINT rShin
		{
			OFFSET 2.041588 -20.007561 0.000000 
			CHANNELS 3 Xrotation Zrotation Yrotation
			JOINT rFoot
			{
				OFFSET 0.000000 -19.190928 -1.224953 
				CHANNELS 3 Xrotation Yrotation Zrotation
				End Site
				{
					OFFSET 0.000000 -2.449906 4.627600 
				}
			}
		}
	}
}
MOTION
Frames: 6
Frame Time: 0.033333
-27.252199 48.059715 18.076509 -4.287121 -0.136336 107.227020 0.000000 0.000000 0.000000 -5.653576 3.236168 -3.727884 -0.003561 1.279687 -6.609004 7.607253 1.054528 -4.168725 -14.255284 -1.560362 -4.189839 -66.774338 -8.708390 31.379147 -105.753708 4.390117 -63.108692 27.406862 2.399215 -3.718405 7.438474 9.615566 -5.552389 46.971828 44.519245 8.856268 102.491547 -5.154546 -31.851921 -40.288818 -15.195897 0.682787 -1.855900 21.288218 10.814833 3.955112 0.947928 9.881840 2.850630 -0.429503 -17.556654 -11.998034 2.977670 0.125245 22.187483 5.659369 -5.507990 -11.996428 0.317739 -3.287984 
-27.237211 48.059460 18.062099 -4.355472 -0.068162 107.807922 0.000000 0.000000 0.000000 -5.662980 3.168088 -4.004913 -0.114580 1.116544 -6.763908 7.480167 1.327870 -4.156888 -14.331255 -1.667263 -4.200047 -68.100510 -12.134340 32.370239 -105.618721 4.613557 -60.168468 25.211172 3.309922 -3.506423 7.550026 9.911546 -5.616072 49.395149 41.221981 13.448452 102.667831 -6.510243 -19.402287 -38.956440 -15.004218 0.454325 -2.031896 21.370777 10.737879 3.939532 0.957815 9.110362 2.791984 -0.403791 -17.561535 -11.931227 2.988108 0.063351 22.134129 5.716094 -6.095597 -12.050920 0.315598 -3.158909 
-27.269957 48.046631 18.089296 -4.414062 -0.009737 108.614029 0.000000 0.000000 0.000000 -5.496354 3.100939 -4.311474 -0.325639 0.877698 -7.055300 7.392064 1.669549 -4.214973 -14.581619 -1.923366 -4.084125 -69.254913 -15.842139 33.965603 -106.176003 5.061757 -55.410248 25.342300 1.184694 -3.957597 7.852656 10.679091 -5.614222 51.426647 36.400356 17.620071 103.860596 -7.901190 -5.978895 -35.330441 -18.099215 1.013449 -2.510000 21.435583 10.572556 4.032967 1.015943 8.336416 2.859403 -0.417946 -17.551991 -12.010585 3.017644 -0.013724 22.228794 5.744645 -6.927846 -12.135269 0.312538 -3.008875 
-27.238392 48.034164 18.133076 -4.746578 0.817500 108.916504 0.000000 0.000000 0.000000 -4.842805 3.454451 -4.452122 -0.048995 0.913732 -7.168294 6.961727 2.157318 -4.407479 -14.593584 -1.991275 -3.441193 -70.234123 -18.772305 35.772011 -106.548088 5.519652 -51.602531 24.696823 0.564988 -4.072934 8.531202 12.072455 -5.263669 52.929993 31.226416 20.823042 105.309708 -8.765838 -1.430844 -31.913530 -18.783234 0.725712 -2.656753 22.116425 10.794605 5.229397 1.201884 7.787914 2.422692 -0.378951 -17.719839 -11.192400 3.707754 0.275426 21.846750 5.718130 -7.677950 -11.972611 0.309025 -2.911504 
-27.237085 47.997543 18.136787 -4.551338 0.895605 108.825203 0.000000 0.000000 0.000000 -4.637072 3.397073 -4.405747 0.179658 0.617860 -7.154616 6.501732 2.605670 -4.675573 -14.737391 -2.507761 -3.317158 -70.871140 -20.011723 36.299236 -106.345390 5.704522 -47.884686 24.172308 -0.103652 -4.191653 9.132669 12.621102 -5.222417 55.266407 26.102880 24.058350 105.929207 -8.943207 -5.865045 -34.193241 -18.160366 0.873396 -2.695492 21.978687 10.594618 5.730632 1.347577 7.631878 2.051826 -0.305372 -17.892506 -11.281326 3.532705 0.107166 22.379894 5.765312 -7.309711 -12.252488 0.298218 -2.995201 
-27.154469 47.997791 18.196512 -4.366335 1.285323 107.929237 0.000000 0.000000 0.000000 -4.255807 3.457261 -4.221489 0.277653 0.452917 -6.689828 6.931623 2.782020 -4.524435 -14.534324 -2.663079 -2.996918 -71.317986 -19.969952 34.708447 -105.490425 5.368256 -46.077888 25.225994 1.292958 -3.935074 9.558914 12.876407 -4.952768 58.874897 20.974894 26.070007 105.566788 -8.550261 -13.711504 -37.862663 -19.097721 1.706578 -1.504261 21.992544 11.117569 5.184555 1.279601 8.553690 2.374501 -0.358462 -17.973921 -10.728232 3.622025 0.161485 22.336571 5.783082 -6.531532 -12.250563 0.325324 -3.308048 
